<?xml version="1.0" encoding="UTF-8"?>
<svg id="Layer_2" data-name="Layer 2" xmlns="http://www.w3.org/2000/svg" xmlns:xlink="http://www.w3.org/1999/xlink" viewBox="0 0 81.13 81.13">
  <defs>
    <style>
      .cls-1 {
        fill: none;
      }

      .cls-2 {
        fill: #950529;
      }

      .cls-3 {
        fill: #ffaf15;
      }

      .cls-4 {
        clip-path: url(#clippath);
      }

      .cls-5 {
        fill: #1b185f;
      }
    </style>
    <clipPath id="clippath">
      <polygon class="cls-1" points="0 81.13 0 0 81.13 0 0 81.13"/>
    </clipPath>
  </defs>
  <g id="design">
    <g id="Atonáán">
      <polygon class="cls-5" points="0 81.13 0 0 81.13 0 0 81.13"/>
      <g class="cls-4">
        <g>
          <rect class="cls-2" x="-2.82" y="12.89" width="78.7" height="37.69" transform="translate(73.06 63.47) rotate(180)"/>
          <g>
            <g>
              <path class="cls-2" d="M-6.99,51.87H2.56c.53,0,.98-.47,1.09-1.13L9.77,11.56H.22c-.53,0-.98.47-1.09,1.13l-6.13,39.18Z"/>
              <path class="cls-2" d="M10.49,11.56s0,.07,0,.11l-6.13,39.18c-.16,1.01-.91,1.74-1.8,1.74H-6.99c-.21,0-.41-.09-.55-.25-.14-.16-.2-.37-.17-.58L-1.58,12.58c.16-1.01.91-1.74,1.8-1.74h9.55c.21,0,.41.09.55.25.11.13.17.3.17.47ZM-6.15,51.15H2.56c.14,0,.32-.21.37-.52L8.93,12.29H.22c-.14,0-.32.21-.37.52l-6,38.35Z"/>
            </g>
            <g>
              <path class="cls-3" d="M16.96,51.87H7.41c-.53,0-.98-.47-1.09-1.13L.2,11.56h9.55c.53,0,.98.47,1.09,1.13l6.13,39.18Z"/>
              <path class="cls-3" d="M17.68,51.87c0,.17-.06.34-.17.47-.14.16-.34.25-.55.25H7.41c-.89,0-1.64-.73-1.8-1.74L-.52,11.67c-.03-.21.03-.42.17-.58.14-.16.34-.25.55-.25h9.55c.89,0,1.64.73,1.8,1.74l6.13,39.18s0,.07,0,.11ZM1.04,12.29l6,38.35c.05.31.23.52.37.52h8.71L10.12,12.8c-.05-.31-.23-.52-.37-.52H1.04Z"/>
            </g>
            <g>
              <path class="cls-2" d="M7.38,51.87h9.55c.53,0,.98-.47,1.09-1.13l6.13-39.18h-9.55c-.53,0-.98.47-1.09,1.13l-6.13,39.18Z"/>
              <path class="cls-2" d="M24.87,11.56s0,.07,0,.11l-6.13,39.18c-.16,1.01-.91,1.74-1.8,1.74H7.38c-.21,0-.41-.09-.55-.25-.14-.16-.2-.37-.17-.58L12.8,12.58c.16-1.01.91-1.74,1.8-1.74h9.55c.21,0,.41.09.55.25.11.13.17.3.17.47ZM8.23,51.15h8.71c.14,0,.32-.21.37-.52l6-38.35h-8.71c-.14,0-.32.21-.37.52l-6,38.35Z"/>
            </g>
            <g>
              <path class="cls-3" d="M31.33,51.87h-9.55c-.53,0-.98-.47-1.09-1.13L14.57,11.56h9.55c.53,0,.98.47,1.09,1.13l6.13,39.18Z"/>
              <path class="cls-3" d="M32.06,51.87c0,.17-.06.34-.17.47-.14.16-.34.25-.55.25h-9.55c-.88,0-1.64-.73-1.8-1.74L13.86,11.67c-.03-.21.03-.42.17-.58.14-.16.34-.25.55-.25h9.55c.89,0,1.64.73,1.8,1.74l6.13,39.18s0,.07,0,.11ZM15.42,12.29l6,38.35c.05.31.23.52.37.52h8.71l-6-38.35c-.05-.31-.23-.52-.37-.52h-8.71Z"/>
            </g>
            <g>
              <path class="cls-2" d="M21.67,51.87h9.55c.53,0,.98-.47,1.09-1.13l6.13-39.18h-9.55c-.53,0-.98.47-1.09,1.13l-6.13,39.18Z"/>
              <path class="cls-2" d="M39.16,11.56s0,.07,0,.11l-6.13,39.18c-.16,1.01-.91,1.74-1.8,1.74h-9.55c-.21,0-.41-.09-.55-.25-.14-.16-.2-.37-.17-.58l6.13-39.18c.16-1.01.91-1.74,1.8-1.74h9.55c.21,0,.41.09.55.25.11.13.17.3.17.47ZM22.52,51.15h8.71c.14,0,.32-.21.37-.52l6-38.35h-8.71c-.14,0-.32.21-.37.52l-6,38.35Z"/>
            </g>
            <g>
              <path class="cls-3" d="M45.63,51.87h-9.55c-.53,0-.98-.47-1.09-1.13l-6.13-39.18h9.55c.53,0,.98.47,1.09,1.13l6.13,39.18Z"/>
              <path class="cls-3" d="M46.35,51.87c0,.17-.06.34-.17.47-.14.16-.34.25-.55.25h-9.55c-.88,0-1.64-.73-1.8-1.74l-6.13-39.18c-.03-.21.03-.42.17-.58.14-.16.34-.25.55-.25h9.55c.89,0,1.64.73,1.8,1.74l6.13,39.18s0,.07,0,.11ZM29.71,12.29l6,38.35c.05.31.23.52.37.52h8.71l-6-38.35c-.05-.31-.23-.52-.37-.52h-8.71Z"/>
            </g>
            <g>
              <path class="cls-2" d="M36.05,51.87h9.55c.53,0,.98-.47,1.09-1.13l6.13-39.18h-9.55c-.53,0-.98.47-1.09,1.13l-6.13,39.18Z"/>
              <path class="cls-2" d="M53.54,11.56s0,.07,0,.11l-6.13,39.18c-.16,1.01-.91,1.74-1.8,1.74h-9.55c-.21,0-.41-.09-.55-.25s-.2-.37-.17-.58l6.13-39.18c.16-1.01.91-1.74,1.8-1.74h9.55c.21,0,.41.09.55.25.11.13.17.3.17.47ZM36.89,51.15h8.71c.14,0,.32-.21.37-.52l6-38.35h-8.71c-.14,0-.32.21-.37.52l-6,38.35Z"/>
            </g>
            <g>
              <path class="cls-3" d="M60,51.87h-9.55c-.53,0-.98-.47-1.09-1.13l-6.13-39.18h9.55c.53,0,.98.47,1.09,1.13l6.13,39.18Z"/>
              <path class="cls-3" d="M60.72,51.87c0,.17-.06.34-.17.47-.14.16-.34.25-.55.25h-9.55c-.88,0-1.64-.73-1.8-1.74l-6.13-39.18c-.03-.21.03-.42.17-.58.14-.16.34-.25.55-.25h9.55c.89,0,1.64.73,1.8,1.74l6.13,39.18s0,.07,0,.11ZM44.08,12.29l6,38.35c.05.31.23.52.37.52h8.71l-6-38.35c-.05-.31-.23-.52-.37-.52h-8.71Z"/>
            </g>
            <g>
              <path class="cls-2" d="M50.43,51.87h9.55c.53,0,.98-.47,1.09-1.13l6.13-39.18h-9.55c-.53,0-.98.47-1.09,1.13l-6.13,39.18Z"/>
              <path class="cls-2" d="M67.91,11.56s0,.07,0,.11l-6.13,39.18c-.16,1.01-.91,1.74-1.8,1.74h-9.55c-.21,0-.41-.09-.55-.25-.14-.16-.2-.37-.17-.58l6.13-39.18c.16-1.01.91-1.74,1.8-1.74h9.55c.21,0,.41.09.55.25.11.13.17.3.17.47ZM51.27,51.15h8.71c.14,0,.32-.21.37-.52l6-38.35h-8.71c-.14,0-.32.21-.37.52l-6,38.35Z"/>
            </g>
            <g>
              <path class="cls-3" d="M74.32,51.87h-9.55c-.53,0-.98-.47-1.09-1.13l-6.13-39.18h9.55c.53,0,.98.47,1.09,1.13l6.13,39.18Z"/>
              <path class="cls-3" d="M75.04,51.87c0,.17-.06.34-.17.47-.14.16-.34.25-.55.25h-9.55c-.88,0-1.64-.73-1.8-1.74l-6.13-39.18c-.03-.21.03-.42.17-.58.14-.16.34-.25.55-.25h9.55c.89,0,1.64.73,1.8,1.74l6.13,39.18s0,.07,0,.11ZM58.4,12.29l6,38.35c.05.31.23.52.37.52h8.71l-6-38.35c-.05-.31-.23-.52-.37-.52h-8.71Z"/>
            </g>
            <g>
              <path class="cls-2" d="M64.74,51.87h9.55c.53,0,.98-.47,1.09-1.13l6.13-39.18h-9.55c-.53,0-.98.47-1.09,1.13l-6.13,39.18Z"/>
              <path class="cls-2" d="M82.23,11.56s0,.07,0,.11l-6.13,39.18c-.16,1.01-.91,1.74-1.8,1.74h-9.55c-.21,0-.41-.09-.55-.25-.14-.16-.2-.37-.17-.58l6.13-39.18c.16-1.01.91-1.74,1.8-1.74h9.55c.21,0,.41.09.55.25.11.13.17.3.17.47ZM65.58,51.15h8.71c.14,0,.32-.21.37-.52l6-38.35h-8.71c-.14,0-.32.21-.37.52l-6,38.35Z"/>
            </g>
          </g>
        </g>
      </g>
    </g>
  </g>
</svg>