<?xml version="1.0" encoding="UTF-8"?>
<svg id="Layer_2" data-name="Layer 2" xmlns="http://www.w3.org/2000/svg" viewBox="0 0 81.1 81.1">
  <defs>
    <style>
      .cls-1 {
        fill: #ffaf15;
      }

      .cls-2 {
        fill: #1b185f;
      }
    </style>
  </defs>
  <g id="design">
    <g id="Iini">
      <rect class="cls-2" width="81.1" height="81.1"/>
      <path class="cls-1" d="M10.6,35.94c1.05-.16.85,1.48,2.42,6.82.96,3.25-1.31,6.83-1.61,7.92-.48,1.74.85,3.51,1.7,5.37.7,1.51,1.72,4.16,1.62,6.95.67,1.32,2.9,1.47,3.92.55,0-2.1-2.63-7.79-2.78-8.81-.14-.92-.25-1.97,2.14-4.14,2.39-2.17,3.48-3.05,4.14-3.31,2.11-.84,3.07-.16,4.32.55,1.24.72,2.7,2.7,3.87,3.08s3.32-.69,5.64-.88c1.8-.15,5.34-.13,6.29,1.25.73,1.06,1,3.98,1.38,5.02.53,1.46,2.33,3.17,3.37,4.54.85,1.12,1.04,2,1.14,2.64.67.63,3.46.67,4.17-.05-.12-.91-.95-3.02-.89-4.69.06-1.56.29-2.63.32-3.76.09-3.46,2.94-5.55,5.77-5.55,5.67,0,5.27,5.39,9.81,4.88,1.51-.17,2.42-4.35,3.4-5.17,1.06-.88,3.6-.45,3.67-4.19.06-3.34,1.16-8.81,1.08-11.09-.08-2.2-1.22-5.32-4.68-6.39-4.1-1.26-6.53-.26-8.35.19-1.04.25-1.98.65-2.55-.15-.45-.63.12-3.21-3.5-5.04-2.42-1.22-7.49-2.49-12.3-2.15-7.64.54-12.7,3-15.85,4.98-2.7,1.69-8.81,1.79-11.65,2.75-4.23,1.43-8.87,5.94-9.96,9.25-.92,2.82-.25,6.05-.62,7.33-.33,1.17-1.06,2.09-1.19,3.71-.19,2.29.85,3.55,1.76,3.62,1.09.09,2.29-1.01,2.43-3.17.09-1.47-.16-2.54-.66-4.16-1.4-4.56.23-8.42,2.24-8.73Z"/>
    </g>
  </g>
</svg>