<?xml version="1.0" encoding="UTF-8"?>
<svg id="Layer_2" data-name="Layer 2" xmlns="http://www.w3.org/2000/svg" viewBox="0 0 81.12 81.18">
  <defs>
    <style>
      .cls-1 {
        fill: #950529;
      }

      .cls-2 {
        fill: #ffaf15;
      }

      .cls-3 {
        fill: #1b185f;
      }
    </style>
  </defs>
  <g id="design">
    <g id="Katoyiss">
      <rect class="cls-2" x="0" width="81.12" height="81.12"/>
      <rect class="cls-3" x="0" y="65.08" width="81.12" height="16.1"/>
      <path class="cls-1" d="M81.12,52.39c-1.62-1-3.92-3.37-5.39-5.26-.69-.88-1.73-1.41-2.79-1.41h-.08c-.74.02-1.39.3-1.71.74-1.03,1.42-5.16,4.25-7.59,4.65-1.54.25-2.66-.64-3.95-1.67-.87-.69-1.86-1.48-3.15-2.04-2.06-.88-2.98.21-3.88.67-.73.37-1.69.71-2.15.87-.73.25-1.65.56-2.74.63-1.59.1-2.51.46-4.18,1.11l-.44.17c-1.06.41-1.84.29-2.67.16-.83-.13-1.69-.27-3.03.12-2.8.81-7.47.6-9.81-.44-2.04-.91-3.99-.47-4.94.32-1.09.91-4.82,3.13-8.78,3.78-3.77.62-7.32-1.88-9.22-4.21-.77-.94-1.94-1.04-2.57-1.01-.92.04-1.7.36-2.06.65v15.68h81.12v-13.52Z"/>
    </g>
  </g>
</svg>