<?xml version="1.0" encoding="UTF-8"?>
<svg id="Layer_2" data-name="Layer 2" xmlns="http://www.w3.org/2000/svg" viewBox="0 0 81.13 81.15">
  <defs>
    <style>
      .cls-1 {
        fill: #950529;
      }

      .cls-2 {
        fill: #ffaf15;
      }

      .cls-3 {
        fill: #1b185f;
      }
    </style>
  </defs>
  <g id="design">
    <g id="Ki_piaapi" data-name="Ki’piaapi">
      <rect class="cls-2" width="81.13" height="81.13"/>
      <path class="cls-3" d="M65.53,81.13l-4.31.02s-.15-1.24-3.74-10.21c-4.47-11.17-12.01-20-12.01-20l3.92-1.5s7.47,8.32,11.86,19.6c4.24,10.9,4.28,12.09,4.28,12.09Z"/>
      <path class="cls-1" d="M56.88,36.34c5.48,13.57,2.32,20.87-4.16,23.49-6.48,2.62-13.83-.43-19.31-14-3.24-8.01-2.68-23.28-1.14-29.12,1.03-3.91,1.57-3.95,5.03-1.86,5.16,3.13,16.35,13.48,19.59,21.49Z"/>
      <path class="cls-1" d="M70.4,40.05c-3.2,13.06-12.62,17.64-14.14,13.26-4.04-11.64,2.62-14.58,5.82-27.64,1.89-7.71,4.93-13,7.8-16.64,1.92-2.44,2.38-1.18,1.34,3.37-1.15,4.99,1.08,19.93-.81,27.64Z"/>
      <path class="cls-1" d="M26.28,57.72c11.41,7.19,21.31,4.13,19.32-.03-5.28-11.05-12.06-8.67-23.47-15.87-6.73-4.25-12.6-5.98-17.18-6.66-3.07-.46-2.52.76,1.41,3.31,4.31,2.8,13.18,14.99,19.92,19.24Z"/>
      <path class="cls-3" d="M78.14,22.08c-2.37.85-8.05,11.22-9.26,14.81-1.21,3.6-5.28,16.69-9.68,17.99,6.8.33,12.04-10.53,12.87-15.51,1.27-7.69,3.68-13.86,6.08-17.29Z"/>
      <path class="cls-3" d="M8.1,50.45c2.3-1.04,13.58,2.47,16.95,4.22,3.37,1.75,15.39,8.33,19.46,6.21-4.66,4.96-15.97.79-20.03-2.22-6.26-4.64-12.28-7.42-16.38-8.21Z"/>
      <path class="cls-2" d="M40.83,54.68c-4.91-.73-4.92-10.73,1.24-15.43,6.16-4.69,13.21,1.56,14.81,3.35,1.46,1.63,3.06,5.42-2,8.53-5.06,3.11-10.22,4.12-14.05,3.54Z"/>
      <path class="cls-3" d="M58.74,51.61c1.99,4.92-.85,8.26-5.28,10.05-4.44,1.79-8.79,1.37-10.78-3.56-1.17-2.91-.27-8.73,1.36-11.29,1.1-1.71,3.9-2.84,5.88-2.38,2.95.7,7.65,4.26,8.82,7.17Z"/>
    </g>
  </g>
</svg>