<?xml version="1.0" encoding="UTF-8"?>
<svg id="Layer_2" data-name="Layer 2" xmlns="http://www.w3.org/2000/svg" viewBox="0 0 81.14 81.14">
  <defs>
    <style>
      .cls-1 {
        fill: #950529;
      }

      .cls-2 {
        fill: #ffaf15;
      }

      .cls-3 {
        fill: #1b185f;
      }
    </style>
  </defs>
  <g id="design">
    <g id="Ko_komiki_somm" data-name="Ko’komiki’somm">
      <rect class="cls-3" width="81.14" height="81.14"/>
      <path class="cls-2" d="M74.75,40.57c0,18.88-15.3,34.18-34.18,34.18-3.24,0-6.36-.45-9.33-1.29,14.34-4.06,24.85-17.25,24.85-32.89S45.58,11.74,31.24,7.68c2.97-.84,6.1-1.29,9.33-1.29,18.88,0,34.18,15.3,34.18,34.18Z"/>
      <path class="cls-1" d="M56.09,40.57c0,15.64-10.51,28.83-24.85,32.89-14.34-4.06-24.85-17.25-24.85-32.89S16.9,11.74,31.24,7.68c14.34,4.06,24.85,17.25,24.85,32.89Z"/>
      <path class="cls-3" d="M46.53,29.29c0,5.26-6.09,9.52-13.61,9.52s-13.61-4.26-13.61-9.52h27.22Z"/>
      <polygon class="cls-3" points="43.36 60.17 24.8 60.17 30.91 29.29 36.74 29.29 43.36 60.17"/>
      <path class="cls-3" d="M36.69,23.07c-.64-.79-1.7-1.54-3.67-1.24-2.51.38-3.77.94-4.85.7-1.09-.25-2.72-.92-4.47-.8-3.6.24-4.3,1.1-5.44.88-.37-.07-1.42-1.11-2.19-1.07-.66.03-.87,1.04-.88,1.53-.01.49.26,1.03.89,1.13.64.1,1.09-.49,1.52-.76.57-.36,1.06.45,1.86.49.71.03,1.75-.18,2.35-.15,1.07.04,2.31.14,2.41,1,.07.68-3.56,1.29-4.26,1.33-.69.04-1.29.11-1.96.18-.5.05-1.27-.61-2.08-.46-.65.12-.62,1.21-.52,1.69.1.48.48.93,1.12.9.6-.02,1.06-1.19,1.81-1.34.87-.18,2.64.63,5.13.17,2.05-.38,3.72.29,5.49,1.33,1.55.91,3.11,1.06,4.96.96,1.97-.11,2.97-1.12,3.44-2.5.38-1.15.01-3.15-.66-3.97Z"/>
      <ellipse class="cls-2" cx="34.08" cy="25.83" rx="2.43" ry="3.07"/>
    </g>
  </g>
</svg>