<?xml version="1.0" encoding="UTF-8"?>
<svg id="Layer_2" data-name="Layer 2" xmlns="http://www.w3.org/2000/svg" viewBox="0 0 81.1 81.1">
  <defs>
    <style>
      .cls-1 {
        fill: #950529;
      }

      .cls-2 {
        fill: #ffaf15;
      }

      .cls-3 {
        fill: #1b185f;
      }
    </style>
  </defs>
  <g id="design">
    <g id="Ma_as" data-name="Ma&amp;apos;as">
      <rect class="cls-2" width="81.1" height="81.1"/>
      <path class="cls-3" d="M46.44,13.14c-1.67,1.83-3.57,1.51-4.42,4.4-1.14-.08-2.29-.06-3.43.04-1.46-4.5-6.79-2.71-6.74-11.47,2.12,1.01,4.22,4.47,6.47,6.49-.32-2.01-.06-7.34,1.99-9.56,2.05,2.22,2.3,7.55,1.99,9.56,2.25-2.02,4.36-5.48,6.47-6.49.15,2.12-.55,5.08-2.33,7.02Z"/>
      <path class="cls-1" d="M59.62,38.95c-.48,19.97-17.45,20.29-18.26,29.83-.31,3.72-.39,5.72-.56,7.39-.03.32-.5.33-.54,0-.21-1.66-.36-3.67-.67-7.39-.81-9.55-17.63-9.87-18.11-29.83-.79-13.37,7.85-20.49,17.12-21.37,1.14-.11,2.29-.12,3.43-.04,9.44.67,18.4,7.81,17.6,21.41Z"/>
    </g>
  </g>
</svg>