<?xml version="1.0" encoding="UTF-8"?>
<svg id="Layer_2" data-name="Layer 2" xmlns="http://www.w3.org/2000/svg" xmlns:xlink="http://www.w3.org/1999/xlink" viewBox="0 0 81.11 81.11">
  <defs>
    <style>
      .cls-1 {
        fill: none;
      }

      .cls-2 {
        fill: #950529;
      }

      .cls-3 {
        fill: #ffaf15;
      }

      .cls-4 {
        clip-path: url(#clippath);
      }

      .cls-5 {
        fill: #1b185f;
      }
    </style>
    <clipPath id="clippath">
      <rect class="cls-1" width="81.11" height="81.11"/>
    </clipPath>
  </defs>
  <g id="design">
    <g id="Mi_ksiníttsuun" data-name="Mi’ksiníttsuun">
      <rect class="cls-5" width="81.11" height="81.11"/>
      <g class="cls-4">
        <g>
          <path class="cls-3" d="M74.45,10.18c-7,.4-15.41,4.32-21.54,8.36-2.46,1.62-4.93,3.95-8.78,6.18-1.21.7-2.56,1.39-4.09,2.05,0,0,0,0-.01,0-2.96,1.27-6.59,2.4-11.19,3.2,1.4-2.67,2.91-5.31,4.55-7.98h0c6.1-7.93,12.56-9.72,17-13.21,7.84-5.39,10.98-11.09,13.27-15.81,2.07-4.28,4.06-10.38,2.71-15.48h-23.28c-.62.73-1.23,1.47-1.83,2.24-4.32,5.52-6.94,14.43-7.95,21.69-.69,4.88.1,11.17-4.79,21.02-.77,1.56-3.14,5.64-3.31,5.97.07.22-2.46-17.54-1.99-25.17.31-9.52-4.2-21.61-8.11-25.75H-7.82c-.9,4.07,0,9.11,1.39,14.1C-4.56-1.65,1.06,5.74,6.3,10.87c4.14,4.04,11.02,7.6,16.66,22.04h0c-2.33,4.89-4.34,9.89-6.1,15.16-7.1-8.28-8.32-17.26-10.52-23.47C3.74,15.44-2.49,7.66-6.24,3.98c-2.73-2.69-6.61-5.7-10.77-6.95V29.87c2.95,2.18,6.12,4.08,9.08,5.56,5.32,2.67,13.25,3.96,23.42,16.98-2.57,8.56-4.57,17.91-6.24,28.7h4.03c2.96-19,6.86-33.21,13.26-46.57,2.57-.34,5.08-.51,7.48-.55,8.57-.13,15.91,1.37,21.15,2.33,3.78.95,7.67,1.26,11.29,1.19,5.22-.09,9.87-.95,12.86-1.78,2.28-.64,4.9-1.59,7.3-2.93V11.11c-3.51-1.08-7.82-1.17-12.16-.92Z"/>
          <path class="cls-2" d="M52.12,37.94c0,4.78-3.87,8.66-8.66,8.66s-8.66-3.87-8.66-8.66c0-1.25.26-2.43.74-3.5.65-1.48,1.72-2.74,3.04-3.65,0,0,0,0,0,0,.63-.43,1.33-.78,2.07-1.03.88-.3,1.82-.47,2.81-.47,4.19,0,7.69,2.98,8.48,6.94.11.56.17,1.13.17,1.72Z"/>
          <path class="cls-2" d="M49.61,60.76c0,4.78-3.87,8.66-8.66,8.66s-8.66-3.87-8.66-8.66c0-1.25.26-2.43.74-3.5.65-1.48,1.72-2.74,3.04-3.65,0,0,0,0,0,0,.63-.43,1.33-.78,2.07-1.03.88-.3,1.82-.47,2.81-.47,4.19,0,7.69,2.98,8.48,6.94.11.56.17,1.13.17,1.72Z"/>
          <path class="cls-2" d="M27.45,68.58c0,4.78-3.87,8.66-8.66,8.66s-8.66-3.87-8.66-8.66c0-1.25.26-2.43.74-3.5.65-1.48,1.72-2.74,3.04-3.65,0,0,0,0,0,0,.63-.43,1.33-.78,2.07-1.03.88-.3,1.82-.47,2.81-.47,4.19,0,7.69,2.98,8.48,6.94.11.56.17,1.13.17,1.72Z"/>
          <path class="cls-2" d="M10.13,55.26c0,4.78-3.87,8.66-8.66,8.66s-8.66-3.87-8.66-8.66c0-1.25.26-2.43.74-3.5.65-1.48,1.72-2.74,3.04-3.65,0,0,0,0,0,0,.63-.43,1.33-.78,2.07-1.03.88-.3,1.82-.47,2.81-.47,4.19,0,7.69,2.98,8.48,6.94.11.56.17,1.13.17,1.72Z"/>
          <path class="cls-2" d="M30.44,46.6c0,4.78-3.87,8.66-8.66,8.66s-8.66-3.87-8.66-8.66c0-1.25.26-2.43.74-3.5.65-1.48,1.72-2.74,3.04-3.65,0,0,0,0,0,0,.63-.43,1.33-.78,2.07-1.03.88-.3,1.82-.47,2.81-.47,4.19,0,7.69,2.98,8.48,6.94.11.56.17,1.13.17,1.72Z"/>
        </g>
      </g>
    </g>
  </g>
</svg>