<?xml version="1.0" encoding="UTF-8"?>
<svg id="Layer_2" data-name="Layer 2" xmlns="http://www.w3.org/2000/svg" viewBox="0 0 81.13 81.13">
  <defs>
    <style>
      .cls-1 {
        fill: #950529;
      }

      .cls-2 {
        fill: #ffaf15;
      }

      .cls-3 {
        fill: #1b185f;
      }
    </style>
  </defs>
  <g id="design">
    <g id="Niitoyiss">
      <rect class="cls-1" width="81.13" height="81.13"/>
      <g>
        <path class="cls-3" d="M51.8,28c-7.46,1.89-14.99,1.85-22.6,0-.11-.03-.19-.12-.19-.24v-15.43c0-.2.22-.32.38-.2,2.74,2.09,19.46,2.09,22.2,0,.16-.12.38,0,.38.2v15.43c0,.11-.08.21-.18.24Z"/>
        <g>
          <polygon class="cls-2" points="40.56 76.84 8.12 76.84 24.34 44.82 40.56 12.8 56.78 44.82 73 76.84 40.56 76.84"/>
          <polygon class="cls-2" points="40.57 14.18 35.76 4.56 36.85 4.01 40.55 11.42 44.15 4.02 45.25 4.55 40.57 14.18"/>
        </g>
        <circle class="cls-3" cx="33.76" cy="70.72" r="4.66"/>
        <circle class="cls-3" cx="19.39" cy="70.72" r="4.66"/>
        <circle class="cls-3" cx="61.75" cy="70.72" r="4.66"/>
        <circle class="cls-3" cx="47.38" cy="70.72" r="4.66"/>
      </g>
    </g>
  </g>
</svg>