<?xml version="1.0" encoding="UTF-8"?>
<svg id="Layer_2" data-name="Layer 2" xmlns="http://www.w3.org/2000/svg" viewBox="0 0 81.14 81.14">
  <defs>
    <style>
      .cls-1 {
        fill: #950529;
      }

      .cls-2 {
        fill: #1b185f;
      }
    </style>
  </defs>
  <g id="design">
    <g id="Ninastiko">
      <rect class="cls-1" x="0" width="81.14" height="81.14"/>
      <path class="cls-2" d="M0,46.32v10.9c8.03-1.5,21.44-1.68,25.06-2.83,5.54-1.77,13.76.4,19.59.35,7.35-.06,10.99,3.28,23.66,1.46,3.19-.46,7.64,1.41,12.83,1.07v-11.04c-4.48-1.4-11.63-3.98-13.54-4.79-.8-.34-2.5-2.49-5.88-5.45-1.96-1.72-8.26-5.68-11.02-8.49-2.48-2.53-5.96-3.71-7.98-3.1-2.15.64-3.42.94-5.41.4-3.74-1.02-4.81-1.63-7.65.45-1.43,1.05-6.31-1.19-7.74.19-2.74,2.65-.62,12.16-6.16,15.34-1.51.87-7.2,1.57-9.7,2.72C2.7,45.04,2.7,44.7,0,46.32Z"/>
    </g>
  </g>
</svg>