<?xml version="1.0" encoding="UTF-8"?>
<svg id="Layer_2" data-name="Layer 2" xmlns="http://www.w3.org/2000/svg" viewBox="0 0 81.1 81.08">
  <defs>
    <style>
      .cls-1 {
        fill: #ffaf15;
      }

      .cls-2 {
        fill: #1b185f;
      }
    </style>
  </defs>
  <g id="design">
    <g id="Niítahtaa">
      <rect class="cls-1" x="0" width="81.08" height="81.08"/>
      <path class="cls-2" d="M0,61.73c8.11.11,7.86-2.31,15.96-2.21,8.11.11,8.08,2.52,16.18,2.63,8.11.11,8.14-2.31,16.25-2.21,8.11.11,8.08,2.52,16.18,2.63,8.11.11,8.41-2.31,16.52-2.21V19.36c-8.11-.11-7.87,2.31-15.98,2.21-8.11-.11-8.08-2.52-16.18-2.63-8.11-.11-8.14,2.31-16.25,2.21-8.11-.11-8.08-2.52-16.18-2.63-8.11-.11-8.39,2.31-16.5,2.21v41.01Z"/>
    </g>
  </g>
</svg>