<?xml version="1.0" encoding="UTF-8"?>
<svg id="Layer_2" data-name="Layer 2" xmlns="http://www.w3.org/2000/svg" xmlns:xlink="http://www.w3.org/1999/xlink" viewBox="0 0 81.14 81.14">
  <defs>
    <style>
      .cls-1 {
        fill: none;
      }

      .cls-2 {
        fill: #950529;
      }

      .cls-3 {
        fill: #ffaf15;
      }

      .cls-4 {
        clip-path: url(#clippath);
      }

      .cls-5 {
        fill: #1b185f;
      }
    </style>
    <clipPath id="clippath">
      <polyline class="cls-1" points="81.14 81.14 0 81.14 81.14 0"/>
    </clipPath>
  </defs>
  <g id="design">
    <g id="Okonoki">
      <polygon class="cls-2" points="81.14 0 81.14 81.14 0 81.14 81.14 0"/>
      <g class="cls-4">
        <g>
          <path class="cls-5" d="M68.57,56.25c-1.3-1.29-2.43-2.45-3.46-3.52-3.71-3.84-6.15-6.46-10.93-9.57l-4.7,4.7c2.99,4.12,6.32,7.2,11.03,8.31,2.31.54,4.95.6,8.05.08Z"/>
          <path class="cls-5" d="M57.11,60.72c-.89-5.22-4.11-8.8-8.51-12l-4.7,4.7c2.98,4.57,5.5,7.01,9.09,10.47,1.2,1.16,2.51,2.42,4,3.92.45-2.68.47-5.01.11-7.09Z"/>
          <path class="cls-3" d="M60.89,45.52c4.5-10.58,2.43-23.27-6.2-31.9C45.45,4.37,31.52,2.67,20.54,8.49L12.68,0H0v7.55l9.87,10.67c-.12.19-.25.38-.36.57-7.01,11.21-5.63,26.16,4.11,35.91,8.63,8.63,21.32,10.7,31.89,6.21,1.8,3.63,1.65,8.52-1.16,15.13,4.99-4.19,7.99-8.24,8.64-12.13.37-2.2,0-4.34-1.19-6.43,1.52,1.28,3.22,2.34,5.31,3.27,1.58.7,3.38,1.32,5.49,1.9-.48-2.52-1.18-4.63-2.09-6.45-.8-1.61-1.76-3-2.87-4.26,2.41,1.32,4.9,1.56,7.46.82,3.52-1.02,7.17-3.89,10.92-8.37-6.61,2.82-11.5,2.97-15.13,1.16Z"/>
        </g>
      </g>
    </g>
  </g>
</svg>