<?xml version="1.0" encoding="UTF-8"?>
<svg id="Layer_2" data-name="Layer 2" xmlns="http://www.w3.org/2000/svg" xmlns:xlink="http://www.w3.org/1999/xlink" viewBox="0 0 81.1 81.1">
  <defs>
    <style>
      .cls-1 {
        fill: none;
      }

      .cls-2 {
        fill: #950529;
      }

      .cls-3 {
        fill: #ffaf15;
      }

      .cls-4 {
        clip-path: url(#clippath);
      }
    </style>
    <clipPath id="clippath">
      <rect class="cls-1" width="81.1" height="81.1"/>
    </clipPath>
  </defs>
  <g id="design">
    <g id="Paahtomahksikimi">
      <g class="cls-4">
        <rect class="cls-2" width="81.1" height="81.1"/>
        <g>
          <path class="cls-3" d="M72.13,32.17h0c1.31.31,2.19,1.53,2.07,2.87l-.11,1.26c-.14,1.65-1.72,2.79-3.33,2.41l-.36-.09c-1.61-.38-2.5-2.11-1.89-3.65l.47-1.17c.5-1.24,1.84-1.94,3.14-1.62Z"/>
          <path class="cls-3" d="M64.97,29.7h0c1.22.56,1.85,1.93,1.47,3.22l-.35,1.21c-.46,1.59-2.23,2.4-3.74,1.71l-.34-.16c-1.51-.69-2.04-2.56-1.14-3.95l.69-1.06c.73-1.12,2.18-1.54,3.4-.98Z"/>
          <path class="cls-3" d="M58.43,25.88h0c1.09.79,1.43,2.25.82,3.44l-.58,1.12c-.76,1.47-2.65,1.92-4,.95l-.3-.22c-1.34-.97-1.51-2.91-.35-4.09l.88-.9c.94-.96,2.44-1.08,3.53-.3Z"/>
          <path class="cls-3" d="M52.76,20.85h0c.91.98.97,2.49.13,3.54l-.79.99c-1.03,1.29-2.98,1.37-4.11.15l-.25-.27c-1.13-1.22-.91-3.15.46-4.08l1.04-.71c1.11-.76,2.6-.59,3.52.4Z"/>
          <path class="cls-3" d="M48.18,14.82h0c.7,1.14.46,2.63-.56,3.49l-.97.81c-1.27,1.07-3.19.76-4.06-.65l-.2-.32c-.87-1.41-.28-3.27,1.25-3.91l1.16-.49c1.23-.53,2.67-.07,3.37,1.07Z"/>
          <path class="cls-3" d="M44.86,8.01h0c.47,1.26-.06,2.67-1.23,3.32l-1.11.61c-1.45.8-3.27.12-3.85-1.43l-.13-.35c-.58-1.55.36-3.26,1.99-3.6l1.24-.26c1.31-.27,2.63.45,3.1,1.71Z"/>
          <path class="cls-3" d="M42.93.68h0c.21,1.33-.58,2.61-1.86,3.01l-1.2.38c-1.58.5-3.24-.52-3.5-2.16l-.06-.37c-.26-1.64.99-3.12,2.65-3.14h1.26c1.34-.03,2.49.95,2.7,2.27Z"/>
          <path class="cls-3" d="M79.64,33.2h0c1.34.05,2.44,1.07,2.59,2.41l.14,1.25c.18,1.65-1.14,3.07-2.8,3.01h-.37c-1.66-.08-2.87-1.6-2.56-3.23l.23-1.24c.25-1.32,1.43-2.26,2.77-2.21Z"/>
        </g>
        <path class="cls-3" d="M71.17,67.62l-42.92.21c-.37,0-.68-.3-.68-.67v-.85c0-.37-.31-.68-.68-.67h-2.54c-.37.01-.68-.29-.68-.66l-.02-4.15c0-.37-.31-.68-.68-.67l-9.17.04c-.37,0-.68.31-.67.68l.02,4.15c0,.37-.3.68-.67.68h-2.54c-.37.01-.68.32-.67.69v1.53s.03,4.33.03,4.33v1.53c0,.37.31.68.69.67l16.97-.08c.37,0,.68-.31.67-.68v-.85c0-.37.3-.68.67-.68l42.92-.21c.37,0,.68-.31.67-.68v-2.98c-.02-.37-.32-.68-.7-.67Z"/>
        <g>
          <path class="cls-3" d="M44.32,44.65c3.59,4.47,4.4,9.78,1.81,11.86-2.59,2.08-7.6.14-11.19-4.34-1.35-1.68-2.19-3.57-2.61-5.35-.72-2.97-2.47-8.34-1.37-9.22,1-.8,5.68,2.01,8.3,3.17,1.78.79,3.61,2.06,5.06,3.87Z"/>
          <path class="cls-3" d="M29.74,22.83c-.7-.55-1.18-1.29-1.77-2.02-1.46-1.82-3.71-1.92-5.41-3.25-.59-.46-.89-1.17-1.39-1.8-1.26-1.57-3.59-1.31-5.14-2.26-.46-.28-.77-.89-1.39-1.14-1.06-.42-2.38-.65-3.64.35-1.25,1.01-1.49,2.48-1.22,3.65.14.6.6,1.03.78,1.52.61,1.71-.1,3.88,1.16,5.46.5.62,1.13,1.07,1.45,1.74.93,1.95.55,4.17,2.01,5.99.59.73,1.2,1.37,1.58,2.17,1.25,2.64.84,5.58,2.82,8.04,3.86,4.81,10.88,5.57,15.69,1.72,4.81-3.86,5.57-10.88,1.72-15.69-1.97-2.46-4.94-2.68-7.25-4.48Z"/>
        </g>
        <rect class="cls-1" width="81.1" height="81.1"/>
      </g>
    </g>
  </g>
</svg>