<?xml version="1.0" encoding="UTF-8"?>
<svg id="Layer_2" data-name="Layer 2" xmlns="http://www.w3.org/2000/svg" xmlns:xlink="http://www.w3.org/1999/xlink" viewBox="0 0 81.13 81.13">
  <defs>
    <style>
      .cls-1 {
        fill: none;
      }

      .cls-2 {
        fill: #950529;
      }

      .cls-3 {
        fill: #ffaf15;
      }

      .cls-4 {
        clip-path: url(#clippath);
      }

      .cls-5 {
        fill: #1b185f;
      }
    </style>
    <clipPath id="clippath">
      <polygon class="cls-1" points="0 0 17.25 17.25 24.3 24.3 33.89 33.89 37.81 37.81 41.81 41.81 50.53 50.53 51.54 51.54 56.49 56.49 58.93 58.93 81.13 81.13 81.13 0 0 0"/>
    </clipPath>
  </defs>
  <g id="design">
    <g id="Pákkii_p" data-name="Pákkii’p">
      <polygon class="cls-3" points="0 0 17.25 17.25 24.3 24.3 33.89 33.89 37.81 37.81 41.81 41.81 50.53 50.53 51.54 51.54 56.49 56.49 58.93 58.93 81.13 81.13 81.13 0 0 0"/>
      <g id="Image">
        <g class="cls-4">
          <g>
            <g>
              <path class="cls-2" d="M87.06,20.76c.31,7.17-5.25,13.24-12.42,13.56-7.17.31-13.24-5.25-13.56-12.42-.34-7.72,4.77-11.39,11.94-11.7,7.17-.31,13.66,1.96,14.04,10.56Z"/>
              <path class="cls-2" d="M71.79,12.87c-.07,1.54,3.56.61,3.1-1.18-.22-1.05-.39-2.16-.51-3.31-.58-5.3.66-26.14,1.49-31.82l-.93-.06c-.98,5.75-2.45,26.18-2.87,32.13-.1,1.4-.19,2.81-.27,4.24Z"/>
            </g>
            <path class="cls-2" d="M86.19,43.85c-2.18,6.84-9.49,10.63-16.33,8.45-6.84-2.18-10.63-9.49-8.45-16.33,2.34-7.36,8.4-9.05,15.24-6.87,6.84,2.18,12.15,6.54,9.54,14.75Z"/>
            <g>
              <path class="cls-2" d="M53.33,23.3c-3.51,6.26-11.44,8.49-17.7,4.98-6.26-3.51-8.49-11.44-4.98-17.7,3.78-6.74,10.05-7.17,16.31-3.66,6.26,3.51,10.58,8.86,6.37,16.37Z"/>
              <path class="cls-2" d="M44.9,8.89c-.83,1.3,2.77,2.31,3.27.53.34-1.02.75-2.07,1.22-3.12,2.16-4.88,13.69-22.28,17.26-26.77l-.78-.52c-3.73,4.48-15.26,21.41-18.61,26.35-.79,1.16-1.57,2.34-2.36,3.53Z"/>
            </g>
            <g>
              <path class="cls-5" d="M67.59,27.69c-.89,3.22-2.92,5.83-5.54,7.49-3,1.91-6.76,2.59-10.46,1.57-6.92-1.91-10.98-9.08-9.06-16,1.6-5.77,5.55-8.22,10.47-8.14,1.43.02,2.94.26,4.5.69,6.92,1.92,12.39,6.08,10.09,14.38Z"/>
              <path class="cls-2" d="M55.5,15.47c-.54,1.44,3.2,1.68,3.31-.17.11-1.07.29-2.18.53-3.31,1.08-5.22,10.32-30.01,12.86-35.15l-.87-.34c-2.7,5.16-12.03,29.49-14.27,35.03-.53,1.3-1.05,2.62-1.56,3.95Z"/>
            </g>
          </g>
        </g>
      </g>
    </g>
  </g>
</svg>