<?xml version="1.0" encoding="UTF-8"?>
<svg id="Layer_2" data-name="Layer 2" xmlns="http://www.w3.org/2000/svg" viewBox="0 0 81.12 81.14">
  <defs>
    <style>
      .cls-1 {
        fill: #ffaf15;
      }

      .cls-2 {
        fill: #1b185f;
      }
    </style>
  </defs>
  <g id="design">
    <g id="Soàtsâki">
      <rect class="cls-2" width="81.12" height="81.14"/>
      <g>
        <path class="cls-1" d="M32.53,62.09c0,.22-.07.44-.21.65-1.08,1.64-6.21,2.89-12.36,2.89s-11.28-1.24-12.36-2.89c-.14-.21-.21-.43-.21-.65,0-1.95,5.63-3.53,12.57-3.53s12.57,1.58,12.57,3.53Z"/>
        <path class="cls-1" d="M14.8,31.46c-1.28,1.68-1.34,4.2-.81,5.62.61,1.64,2.52,2.6,2.88,3.6.34.95.65,4.75.9,5.92.29,1.32.47,2.84.21,3.59-.23.67-1.21,1.92-.92,2.68.28.75,2.12,1.45,2.49.49.4-1.01-.17-2.27-.17-3.31s.15-2.67.34-4.17c.16-1.29-.1-3.89,1.31-4.04.79-.08,1.25.58,1.75,1.64.65,1.39.55,2.43.79,3.61.23,1.18,1.26,2.81,1.41,3.79.16,1.06-.76,2.87-.52,3.4.3.66,2.62.76,3.06.06.35-.56-1.03-2.84-1.29-4s-.4-4.03-.15-4.35.53-.28,1.54.69c1.01.97,3.42,1.98,4.68,2.14,1.54.2,3.81.03,4.93-2.05.69-1.29.26-2.42,1.38-3.27,1.31-.98,4.11.91,5.4,2.63,1.09,1.45.24,3.51-.57,4.89-.82,1.38-3.88,6.52-4.54,8.51-.71,2.15.45,4.46,2.64,5.22,3.14,1.09,21.43-.67,23.86-1.8,1.01-.47-.25-2.12.06-2.97.31-.85,1.48-1.51,2.33-.91.85.6,2.4,2.28,3.28,2.72,1.14.56,2.31.31,3.17.18.63-.09,1.57-.34,1.79-1.09s-.88-1.72-1.39-2.91c-.5-1.19-1.14-2.86-2.01-3.14-.98-.32-1.65.49-2.55.07-.66-.31-.91-1.26-1.85-1.51-1.01-.27-1.98.29-2.77.67-.79.38-5.99,1.73-7.43.5-1.37-1.17.25-4.27.01-7.45-.43-5.78-5.55-9.5-9.34-12.39-2.67-2.04-9.78-6.24-17.71-6.01-4.07.12-3.36,1.65-5.84.72-1.34-.5-3.1-1.14-5.25-.92-2.99.3-4.04,1.58-5.1,2.96Z"/>
      </g>
    </g>
  </g>
</svg>