<?xml version="1.0" encoding="UTF-8"?> <svg xmlns="http://www.w3.org/2000/svg" width="249" height="64" viewBox="0 0 249 64" fill="none"><path d="M65.7892 45.8311H54.3477V57.283H65.7892V45.8311Z" fill="#F7C664"></path><path d="M63.5015 45.8311V48.1078H61.213V50.4172H58.9246V48.1078H56.6361V45.8311H54.3477V48.1078V48.1398V50.4172H56.6361V52.7267H58.9246H61.213H63.5015V50.4172H65.7892V48.1398V48.1078V45.8311H63.5015Z" fill="#F69121"></path><path d="M63.4991 54.9887H61.207V57.2829H63.4991H65.7905V55.0207V54.9887V52.7266H63.4991V54.9887Z" fill="#F69121"></path><path d="M56.6397 52.7266H54.3477V54.9887V55.0207V57.2829H56.6397H58.9318V54.9887H56.6397V52.7266Z" fill="#F69121"></path><path d="M56.6397 54.9887V52.7266H54.3477V54.9887V55.0207V57.2829" fill="#F69121"></path><path d="M65.7894 57.2829V55.0207V54.9887V52.7266H63.498V54.9887" fill="#F69121"></path><path d="M65.7892 34.3784H54.3477V45.8304H65.7892V34.3784Z" fill="#226E4A"></path><path d="M62.8703 37.1143H57.2662C57.1634 37.1143 57.0801 37.1977 57.0801 37.3005V42.9097C57.0801 43.0126 57.1634 43.096 57.2662 43.096H62.8703C62.973 43.096 63.0564 43.0126 63.0564 42.9097V37.3005C63.0564 37.1977 62.973 37.1143 62.8703 37.1143Z" fill="#99EE81"></path><path d="M64.5617 38.6658H63.7599V36.2967H61.3398V35.4941H64.1612C64.3829 35.4941 64.5617 35.6739 64.5617 35.8951V38.6658Z" fill="#99EE81"></path><path d="M64.5616 39.0259H63.7598V39.7571H64.5616V39.0259Z" fill="#99EE81"></path><path d="M64.5616 40.1172H63.7598V40.8484H64.5616V40.1172Z" fill="#99EE81"></path><path d="M64.1612 44.7159H61.3398V43.9133H63.7599V41.2087H64.5617V44.3149C64.5617 44.5369 64.3821 44.7159 64.1612 44.7159Z" fill="#99EE81"></path><path d="M56.378 38.6658H55.5762V35.8951C55.5762 35.6731 55.7557 35.4941 55.9767 35.4941H58.7988V36.2967H56.378V38.6658Z" fill="#99EE81"></path><path d="M56.378 39.0259H55.5762V39.7571H56.378V39.0259Z" fill="#99EE81"></path><path d="M56.378 40.1172H55.5762V40.8484H56.378V40.1172Z" fill="#99EE81"></path><path d="M58.7988 44.7159H55.9767C55.755 44.7159 55.5762 44.5361 55.5762 44.3149V41.2087H56.378V43.9133H58.7988V44.7159Z" fill="#99EE81"></path><path d="M60.9806 35.5115H60.25V36.314H60.9806V35.5115Z" fill="#99EE81"></path><path d="M59.8888 35.5112H59.1582V36.3138H59.8888V35.5112Z" fill="#99EE81"></path><path d="M60.9806 43.9136H60.25V44.7161H60.9806V43.9136Z" fill="#99EE81"></path><path d="M59.8888 43.9136H59.1582V44.7161H59.8888V43.9136Z" fill="#99EE81"></path><path d="M65.7892 22.9263H54.3477V34.3783H65.7892V22.9263Z" fill="#4D57A5"></path><path d="M62.4222 27.2625C62.4942 27.1046 62.5356 26.9293 62.5356 26.7445C62.5356 26.0576 61.9832 25.501 61.302 25.501C60.6208 25.501 60.0684 26.0576 60.0684 26.7445C60.0684 27.4313 60.6208 27.988 61.302 27.988C61.4241 27.988 61.5412 27.9698 61.6524 27.9363L63.1426 29.4279V34.3787H64.1633V29.0052L62.423 27.2633L62.4222 27.2625Z" fill="#A6C9DE"></path><path d="M58.8347 29.3172C58.7126 29.3172 58.5948 29.3354 58.4836 29.3688L56.9933 27.878V22.9265H55.9727V28.3007L57.713 30.0426C57.641 30.2005 57.5996 30.3759 57.5996 30.5607C57.5996 31.2476 58.1521 31.8042 58.8332 31.8042C59.5144 31.8042 60.0669 31.2476 60.0669 30.5607C60.0669 29.8738 59.5144 29.3172 58.8332 29.3172H58.8347Z" fill="#A6C9DE"></path><path d="M65.7892 11.4746H54.3477V22.9266H65.7892V11.4746Z" fill="#F69121"></path><path d="M63.0548 17.2619C60.3047 17.7967 59.7784 18.3235 59.2441 21.076C59.231 21.1444 59.1336 21.1444 59.1198 21.076C58.5854 18.3235 58.0591 17.7967 55.3091 17.2619C55.2407 17.2488 55.2407 17.1513 55.3091 17.1374C58.0591 16.6026 58.5854 16.0759 59.1198 13.3233C59.1328 13.2549 59.2303 13.2549 59.2441 13.3233C59.7784 16.0759 60.3047 16.6026 63.0548 17.1374C63.1231 17.1505 63.1231 17.248 63.0548 17.2619Z" fill="#F7C664"></path><path d="M63.4142 19.8887C62.97 19.9979 62.8246 20.1434 62.7163 20.5873C62.7011 20.6506 62.6102 20.6506 62.5949 20.5873C62.4859 20.1427 62.3405 19.9972 61.897 19.8887C61.8338 19.8735 61.8338 19.7825 61.897 19.7672C62.3412 19.6581 62.4866 19.5126 62.5949 19.0687C62.6102 19.0054 62.7011 19.0054 62.7163 19.0687C62.8254 19.5133 62.9708 19.6588 63.4142 19.7672C63.4774 19.7825 63.4774 19.8735 63.4142 19.8887Z" fill="#F7C664"></path><path d="M64.628 15.0714C63.9388 15.2264 63.7462 15.4192 63.5913 16.109C63.5768 16.1738 63.4845 16.1738 63.4699 16.109C63.3151 15.4192 63.1224 15.2264 62.4333 15.0714C62.3686 15.0569 62.3686 14.9645 62.4333 14.9499C63.1224 14.7949 63.3151 14.6021 63.4699 13.9123C63.4845 13.8476 63.5768 13.8476 63.5913 13.9123C63.7462 14.6021 63.9388 14.7949 64.628 14.9499C64.6927 14.9645 64.6927 15.0569 64.628 15.0714Z" fill="#F7C664"></path><path d="M65.7892 11.4747H54.3477V0.0219727L65.7892 11.4747Z" fill="#4D57A5"></path><path d="M60.0672 9.96106C58.5988 9.96106 58.0586 6.60019 58.4446 4.12411L57.0903 2.76855C56.3285 3.5311 55.8574 4.58396 55.8574 5.74743C55.8574 8.07435 57.7424 9.96034 60.0665 9.96034L60.0672 9.96106Z" fill="#A6C9DE"></path><path d="M61.1217 9.8291C60.9872 9.86403 60.8498 9.89168 60.7109 9.91351C60.8505 9.8924 60.9872 9.86403 61.1217 9.8291Z" fill="black"></path><path d="M62.0749 9.45264C61.8364 9.58215 61.5835 9.68984 61.3203 9.77206C61.5842 9.68984 61.8364 9.58288 62.0749 9.45264Z" fill="black"></path><path d="M62.8984 8.86675C62.9486 8.82164 62.9973 8.77507 63.0446 8.72705C62.9973 8.77435 62.9479 8.82091 62.8984 8.86675Z" fill="black"></path><path d="M58.4449 4.12426C58.0589 6.60108 58.599 9.96122 60.0674 9.96122C60.2855 9.96122 60.4992 9.94448 60.7086 9.91247C60.8482 9.89137 60.9848 9.86299 61.1193 9.82806C61.1869 9.8106 61.2531 9.79168 61.3192 9.77131C61.5831 9.68909 61.8354 9.58213 62.0738 9.45189C62.193 9.38713 62.3086 9.31655 62.4206 9.24088C62.5325 9.1652 62.6408 9.08444 62.7448 8.99858C62.7971 8.95565 62.848 8.91126 62.8975 8.86615C62.9476 8.82104 62.9963 8.77447 63.0436 8.72645L58.4449 4.12354V4.12426Z" fill="#A6C9DE"></path><path d="M22.8829 45.8335H11.4414V57.2855H22.8829V45.8335Z" fill="#A6C9DE"></path><path d="M12.9016 55.9887C12.8958 55.4779 12.2001 55.2145 11.4434 55.053V57.2846H11.6796C12.3041 56.9695 12.9074 56.5744 12.9016 55.9887Z" fill="#4D57A5"></path><path d="M14.3873 53.6319C14.3778 52.6903 12.2929 51.6848 12.9079 51.1085C13.3274 50.7163 13.7323 51.3166 14.7311 52.2756C16.0942 53.5817 17.458 53.9826 19.3277 54.2911C21.1952 54.5996 20.413 52.6714 19.3916 51.8056C18.6952 51.2155 17.6135 50.5402 16.9818 50.3743C16.2556 50.1837 16.4424 49.3855 17.0661 49.5114C17.7073 49.6394 18.1456 49.8512 18.4502 49.2276C18.8762 48.353 17.9472 47.8066 16.9287 46.9065C16.4489 46.4823 16.9164 45.6237 17.5655 46.2953C18.6778 47.4457 19.255 47.2878 19.6672 46.7653C19.8365 46.5492 19.8518 46.1942 19.8438 45.8347H11.4453V54.1136C12.3744 54.294 14.3982 54.5632 14.3895 53.6326L14.3873 53.6319Z" fill="#4D57A5"></path><path d="M20.8456 46.9652C20.8064 48.3637 20.9656 51.0828 21.755 51.8468C22.3104 52.3838 22.6506 52.1255 22.8833 51.5288V45.833H20.834C20.8558 46.1597 20.8572 46.5417 20.8456 46.9645V46.9652Z" fill="#4D57A5"></path><path d="M18.7403 55.8208C18.2365 55.2503 15.2298 55.7044 14.4433 56.4101C14.1627 56.6626 13.7934 56.9755 13.3906 57.2847H18.3448C18.9191 56.8074 19.0798 56.2035 18.7403 55.8208Z" fill="#4D57A5"></path><path d="M11.4415 34.3772H0V45.8292H11.4415V34.3772Z" fill="#673091"></path><path d="M11.0135 38.5041C10.7613 38.9087 10.0663 39.8735 8.97731 40.2897C8.16458 40.6004 7.38456 40.7248 6.83207 40.6652C6.6198 40.556 6.42352 40.492 6.25414 40.4796H6.25342C6.16618 40.4192 6.10294 40.3435 6.06877 40.2533C6.06441 40.2431 6.0615 40.2322 6.05859 40.2213C6.06368 40.2169 6.0695 40.2126 6.07459 40.2082C6.12911 40.1631 6.18145 40.1071 6.23234 40.0409C6.38645 39.84 6.51803 39.5475 6.61617 39.1925C7.00291 38.8599 7.55975 38.534 8.21256 38.2844C9.30154 37.8689 10.4618 38.1236 10.919 38.2553C10.9583 38.2669 10.9888 38.2902 11.0084 38.3208C11.0455 38.3724 11.0506 38.4437 11.0135 38.5034V38.5041Z" fill="#A066CC"></path><path d="M6.61738 39.1934C6.51924 39.5484 6.38693 39.8409 6.23354 40.0418C6.18338 40.1072 6.13104 40.1633 6.0758 40.2091L6.05762 40.2157C6.04236 40.1611 6.03727 40.1029 6.04381 40.0418C6.06707 39.7849 6.27571 39.4866 6.61738 39.1934Z" fill="#B7322C"></path><path d="M6.05664 40.2157L6.07524 40.209C6.07004 40.2135 6.06408 40.2179 6.05887 40.2224C6.05813 40.2202 6.05738 40.2179 6.05664 40.2157Z" fill="#F1C328"></path><path d="M6.83183 40.6655C6.58976 40.6393 6.3913 40.5782 6.25391 40.48C6.42329 40.4923 6.61956 40.5557 6.83183 40.6655Z" fill="#F1C328"></path><path d="M9.22595 44.6177C9.22741 44.6577 9.2136 44.6941 9.19106 44.7225C9.15253 44.7727 9.08565 44.7996 9.01805 44.7814C8.55643 44.6614 7.42965 44.2852 6.70706 43.3699C6.05498 42.5426 5.67624 41.6789 5.67188 41.1121V41.1026C5.67188 40.8698 5.73585 40.6886 5.87179 40.5809C5.88196 40.5722 5.89287 40.5649 5.9045 40.5569C5.999 40.495 6.11823 40.471 6.25417 40.4798H6.25489C6.39229 40.5773 6.59075 40.6391 6.83282 40.6653C7.3177 40.9141 7.88327 41.4002 8.3885 42.0405C9.11037 42.9558 9.21432 44.1411 9.22523 44.6177H9.22595Z" fill="#A066CC"></path><path d="M6.83183 40.6655C6.58976 40.6393 6.3913 40.5782 6.25391 40.48C6.42329 40.4923 6.61956 40.5557 6.83183 40.6655Z" fill="#B7322C"></path><path d="M5.67262 41.1033V41.1128C5.67262 41.6803 5.33095 42.5353 4.72831 43.3662C4.04424 44.3099 2.932 44.7305 2.4762 44.8695C2.43767 44.8811 2.39914 44.8782 2.3657 44.8644C2.30755 44.8411 2.26393 44.7836 2.26248 44.713C2.25375 44.2357 2.30973 43.0482 2.99525 42.1045C3.87341 40.8952 4.97329 40.1967 5.45163 40.5452C5.46253 40.5532 5.47271 40.562 5.48288 40.5707C5.6101 40.682 5.67189 40.8668 5.67335 41.1033H5.67262Z" fill="#A066CC"></path><path d="M5.32243 40.1317C5.32098 40.1354 5.31953 40.1376 5.31807 40.1405C5.06364 40.6578 3.78856 40.6593 2.42552 40.1368C1.33727 39.7206 0.64303 38.7544 0.390777 38.3505C0.368968 38.3163 0.361699 38.2785 0.366787 38.2421C0.374057 38.1796 0.418401 38.1228 0.485281 38.1031C0.943262 37.9715 2.10421 37.7175 3.19173 38.1344C3.86925 38.3942 4.44427 38.7362 4.83247 39.0825C4.94878 39.5467 5.11961 39.9156 5.32243 40.1325V40.1317Z" fill="#A066CC"></path><path d="M5.33436 40.1031C5.33072 40.1133 5.32636 40.122 5.322 40.1315C5.11918 39.9147 4.94907 39.5458 4.83203 39.0815C5.24203 39.4475 5.44267 39.8186 5.33436 40.1031Z" fill="#F1C328"></path><path d="M5.33436 40.1031C5.33072 40.1133 5.32636 40.122 5.322 40.1315C5.11918 39.9147 4.94907 39.5458 4.83203 39.0815C5.24203 39.4475 5.44267 39.8186 5.33436 40.1031Z" fill="#B7322C"></path><path d="M6.23354 40.0415C6.18338 40.107 6.13104 40.163 6.0758 40.2089C6.07071 40.2132 6.06489 40.2176 6.0598 40.222C6.05908 40.2198 6.05835 40.2176 6.05762 40.2154C6.04236 40.1608 6.03727 40.1026 6.04381 40.0415H6.23354Z" fill="#B7322C"></path><path d="M6.81176 37.6373C6.81176 38.2165 6.73979 38.7535 6.61693 39.193C6.27526 39.4862 6.06663 39.7845 6.04337 40.0414C6.03682 40.1018 6.04191 40.16 6.05718 40.2153C6.05791 40.2175 6.05863 40.2196 6.05936 40.2218C5.95831 40.3011 5.85072 40.3441 5.7395 40.3441C5.59193 40.3441 5.4509 40.2684 5.32295 40.1316C5.32732 40.1214 5.33168 40.1127 5.33531 40.1025C5.44363 39.818 5.24372 39.4476 4.83299 39.0809C4.72903 38.6633 4.66797 38.1678 4.66797 37.6366C4.66797 36.4702 5.32005 35.4763 5.60719 35.095C5.64063 35.0514 5.68934 35.0288 5.73877 35.0288C5.78821 35.0288 5.83764 35.0506 5.87108 35.095C6.15822 35.4756 6.8103 36.4702 6.8103 37.6366L6.81176 37.6373Z" fill="#A066CC"></path><path d="M6.61654 39.1934C6.5184 39.5484 6.38609 39.8409 6.2327 40.0418H6.04297C6.06623 39.7849 6.27487 39.4866 6.61654 39.1934Z" fill="#F1C328"></path><path d="M6.57741 39.7147C6.92448 39.2742 7.0852 38.8219 6.9364 38.7044C6.78761 38.587 6.38563 38.8488 6.03857 39.2893C5.69151 39.7298 5.53078 40.1821 5.67958 40.2996C5.82838 40.417 6.23035 40.1552 6.57741 39.7147Z" fill="#673091"></path><path d="M7.5335 40.995C7.611 40.8219 7.25921 40.4956 6.74775 40.2661C6.23629 40.0367 5.75884 39.9911 5.68134 40.1641C5.60384 40.3372 5.95563 40.6635 6.46709 40.8929C6.97855 41.1224 7.456 41.168 7.5335 40.995Z" fill="#673091"></path><path d="M5.01533 40.8969C5.52679 40.6675 5.87858 40.3412 5.80108 40.1681C5.72358 39.995 5.24613 40.0407 4.73467 40.2701C4.22321 40.4996 3.87142 40.8259 3.94892 40.9989C4.02642 41.172 4.50387 41.1264 5.01533 40.8969Z" fill="#673091"></path><path d="M5.73961 42.2322C5.92911 42.2322 6.08273 41.7774 6.08273 41.2164C6.08273 40.6555 5.92911 40.2007 5.73961 40.2007C5.55011 40.2007 5.39648 40.6555 5.39648 41.2164C5.39648 41.7774 5.55011 42.2322 5.73961 42.2322Z" fill="#673091"></path><path d="M5.81336 40.2941C5.96216 40.1767 5.80143 39.7244 5.45437 39.2839C5.1073 38.8434 4.70533 38.5815 4.55653 38.699C4.40773 38.8164 4.56846 39.2687 4.91552 39.7092C5.26258 40.1497 5.66456 40.4116 5.81336 40.2941Z" fill="#673091"></path><path d="M5.74026 39.5239L5.0293 40.0413L5.30045 40.8773H6.17934L6.45049 40.0413L5.74026 39.5239Z" fill="#A066CC"></path><path d="M22.8828 57.2835V45.8308H34.3243L22.8828 57.2835Z" fill="#673091"></path><path d="M28.6032 45.8308V51.5572H22.8828L28.6032 45.8308Z" fill="#A066CC"></path><path d="M45.7638 45.8311H34.3223V57.283H45.7638V45.8311Z" fill="#4D57A5"></path><path d="M34.323 47.9203C35.1241 47.061 35.9834 46.7204 37.1538 46.8281C37.675 46.8725 38.2507 47.0559 38.5299 47.5303C38.945 48.2011 38.3438 49.0968 37.6096 49.1682C37.3428 49.1994 37.0607 49.0903 36.9895 48.8313C36.9647 48.7054 36.9589 48.5955 36.9953 48.557C37.0142 48.5439 37.044 48.5831 37.092 48.6341C37.2897 48.8793 37.6554 48.6894 37.6604 48.3947C37.6699 47.8301 36.9189 47.6838 36.5395 48.0032C36.0604 48.3379 36.0153 49.0561 36.3897 49.4898C36.7954 49.9889 37.5608 50.0988 38.1453 49.9001C38.343 49.8266 38.519 49.703 38.6789 49.5654C39.5796 48.776 40.2513 47.6569 41.397 47.2713C42.2083 47.0042 43.4753 47.0763 43.7843 48.0243C43.9202 48.474 43.841 49.0219 43.5044 49.3471C43.1002 49.7372 42.5587 49.7241 42.3013 49.2969C42.0658 48.9062 42.3253 48.3365 42.8669 48.6181C43.1191 48.749 42.7913 47.6365 41.634 48.1961C40.9594 48.522 41.035 49.2984 41.309 49.7364C42.3159 51.3481 45.7638 50.774 45.7638 47.5885V45.8306H34.3223V47.9203H34.323Z" fill="#A6C9DE"></path><path d="M45.765 55.1935C44.9639 56.0528 44.1047 56.3933 42.9343 56.2857C42.413 56.2413 41.8373 56.0579 41.5581 55.5835C41.143 54.9126 41.7442 54.0169 42.4785 53.9456C42.7453 53.9143 43.0273 54.0235 43.0986 54.2825C43.1233 54.4084 43.1291 54.5183 43.0927 54.5568C43.0738 54.5699 43.044 54.5306 42.9961 54.4797C42.7983 54.2345 42.4327 54.4244 42.4276 54.7191C42.4181 55.2837 43.1691 55.43 43.5485 55.1106C44.0276 54.7758 44.0727 54.0577 43.6983 53.624C43.2927 53.1249 42.5272 53.015 41.9427 53.2137C41.745 53.2871 41.569 53.4108 41.4091 53.5484C40.5084 54.3378 39.8367 55.4569 38.691 55.8425C37.8797 56.1096 36.6127 56.0375 36.3037 55.0895C36.1678 54.6398 36.247 54.0919 36.5836 53.7666C36.9878 53.3766 37.5294 53.3897 37.7867 53.8168C38.0222 54.2076 37.7627 54.7773 37.2211 54.4957C36.9689 54.3647 37.2967 55.4773 38.454 54.9177C39.1287 54.5918 39.0531 53.8154 38.779 53.3774C37.7722 51.7657 34.3242 52.3398 34.3242 55.5253V57.2832H45.7657V55.1935H45.765Z" fill="#A6C9DE"></path><path d="M11.4415 45.8308V57.2835L10.466 56.3063L8.60132 54.44L2.88237 48.7158L0 45.8308H11.4415Z" fill="#226E4A"></path><path d="M8.60156 48.717V51.145H10.4662V48.717V46.8564L8.60156 48.717Z" fill="#99EE81"></path><path d="M10.4662 52.5161V56.3063L8.60156 54.4399V52.5161H10.4662Z" fill="#99EE81"></path><path d="M8.60235 48.7169L6.17578 48.7155V46.8491H8.60163L10.467 46.8564L8.60235 48.7169Z" fill="#99EE81"></path><path d="M2.88172 48.7157H4.80378V46.8486H2.37794H1.01562L2.88172 48.7157Z" fill="#99EE81"></path><path d="M11.4415 11.4746H0V17.1784H11.4415V11.4746Z" fill="#4D57A5"></path><path d="M5.73675 14.8823C4.83606 14.8823 4.10547 15.6136 4.10547 16.5151V17.1772H5.06578V16.6061C5.06578 16.16 5.36601 15.8624 5.73675 15.8624C6.1075 15.8624 6.40773 16.1608 6.40773 16.6061V17.1772H7.36804V16.5151C7.36804 15.6129 6.63745 14.8823 5.73675 14.8823Z" fill="#A6C9DE"></path><path d="M6.24598 13.9067H5.22461V15.4085H6.24598V13.9067Z" fill="#A6C9DE"></path><path d="M1.63129 14.8823C0.730589 14.8823 0 15.6136 0 16.5158V17.178H0.960306V16.6068C0.960306 16.1608 1.26054 15.8632 1.63129 15.8632C2.00203 15.8632 2.30226 16.1615 2.30226 16.6068V17.178H3.26257V16.5158C3.26257 15.6136 2.53198 14.8831 1.63129 14.8831V14.8823Z" fill="#A6C9DE"></path><path d="M2.14246 13.9067H1.12109V15.4085H2.14246V13.9067Z" fill="#A6C9DE"></path><path d="M0 12.9091L0 13.9314H11.4415V12.9091H0Z" fill="#A6C9DE"></path><path d="M9.81097 14.8823C8.91028 14.8823 8.17969 15.6136 8.17969 16.5151V17.1772H9.13999V16.6061C9.13999 16.16 9.44023 15.8624 9.81097 15.8624C10.1817 15.8624 10.482 16.1608 10.482 16.6061V17.1772H11.4423V16.5151C11.4423 15.6129 10.7117 14.8823 9.81097 14.8823Z" fill="#A6C9DE"></path><path d="M10.3202 13.9067H9.29883V15.4085H10.3202V13.9067Z" fill="#A6C9DE"></path><path d="M22.881 0.0219727H11.4395V11.474H22.881V0.0219727Z" fill="#673091"></path><path d="M22.045 5.37159C21.8153 5.88019 21.3639 6.25783 20.8368 6.38225C20.3599 6.49503 19.8707 6.38443 19.4934 6.07883C18.7919 5.50838 18.6458 4.57994 19.1466 3.87051C19.561 3.28478 20.2334 3.21274 20.6442 3.48124C21.0186 3.72717 21.2163 4.27434 20.8128 4.94375C20.7089 5.11619 20.4842 5.17149 20.312 5.06672C20.1397 4.96339 20.0844 4.73856 20.1891 4.56611C20.3229 4.34274 20.3454 4.15719 20.2451 4.09098C20.1455 4.02622 19.9165 4.04441 19.742 4.2918C19.4643 4.68399 19.5508 5.18532 19.9528 5.51129C20.1564 5.67646 20.4108 5.73321 20.6689 5.67209C20.9771 5.59933 21.2432 5.37377 21.3806 5.06963C21.6023 4.57848 21.6038 3.63476 20.911 3.07304C20.5126 2.74998 19.9085 2.69104 19.4076 2.92606C18.6952 3.26149 18.2794 4.11863 18.2678 5.27773C18.2387 8.20348 18.2169 10.6083 18.2096 11.4341C18.2096 11.4559 18.1914 11.4734 18.1696 11.4734H17.5205C17.4979 11.4734 17.4805 11.4559 17.4805 11.4334C17.4877 10.6119 17.5088 8.20275 17.5386 5.27045C17.5532 3.82031 18.1209 2.72524 19.0965 2.26611C19.8569 1.90885 20.7496 2.00272 21.3697 2.50623C22.3053 3.26586 22.4158 4.54865 22.0436 5.37086L22.045 5.37159Z" fill="#A066CC"></path><path d="M16.8122 11.4747H16.163C16.1412 11.4747 16.123 11.4573 16.123 11.4354C16.1165 10.6023 16.0954 8.20407 16.0656 5.28778C16.054 4.12868 15.6389 3.27155 14.9257 2.93611C14.4249 2.69964 13.8208 2.75858 13.4224 3.08309C12.7303 3.64481 12.7318 4.58854 12.9528 5.07968C13.0902 5.38382 13.3562 5.60866 13.6645 5.68142C13.9233 5.74327 14.1777 5.68579 14.3805 5.52062C14.7818 5.19537 14.869 4.69331 14.5913 4.30185C14.4169 4.05446 14.1886 4.03627 14.0883 4.10103C13.9887 4.16652 14.0105 4.35279 14.1442 4.57544C14.2482 4.74861 14.193 4.97199 14.0214 5.07677C13.8484 5.18082 13.6252 5.12552 13.5205 4.95307C13.1171 4.28439 13.3141 3.73722 13.6892 3.49129C14.0999 3.22207 14.7723 3.2941 15.1867 3.88056C15.6876 4.58926 15.5415 5.51843 14.8399 6.08816C14.4634 6.39448 13.9734 6.50436 13.4965 6.39157C12.9695 6.26788 12.518 5.88879 12.2883 5.38091C11.9169 4.55943 12.0266 3.27664 12.9622 2.51701C13.5823 2.01277 14.4743 1.9189 15.2354 2.27689C16.211 2.73602 16.7787 3.83109 16.7933 5.28123C16.8223 8.2048 16.8434 10.6067 16.8507 11.4354C16.8507 11.458 16.8333 11.4754 16.8107 11.4754L16.8122 11.4747Z" fill="#A066CC"></path><path d="M45.7638 11.4747H34.3223V0.0219727L36.6652 2.36781H36.666L37.981 3.68408L38.6716 4.37604H38.6724L39.0584 4.76386H39.0591L41.027 6.7328V6.73353L41.4137 7.12062V7.12135L42.105 7.81186L42.9309 8.63843L43.4201 9.12885V9.12957L45.7638 11.4747Z" fill="#F69121"></path><path d="M45.7872 11.4833H34.3145V0L34.3297 0.01528L45.7872 11.4833ZM34.3326 11.4651H45.7436L34.3326 0.0443847V11.4658V11.4651Z" fill="#F69121"></path><path d="M42.9317 8.63805C42.497 9.0739 41.9641 9.41224 41.3688 9.61597L40.596 8.50417L40.2696 9.82989C40.1955 9.83426 40.1199 9.83571 40.0443 9.83571C38.8833 9.83571 37.8358 9.35112 37.0928 8.57402L37.7282 7.41493L36.4546 7.69943C36.1398 7.11951 35.9602 6.4552 35.9602 5.74795C35.9602 5.33321 36.022 4.93229 36.1369 4.55539L37.4301 4.55975L36.5796 3.58401C36.7446 3.31989 36.938 3.07686 37.1568 2.85858L36.6668 2.36816C35.7669 3.26896 35.2238 4.52846 35.2703 5.91239C35.3539 8.4154 37.3945 10.4513 39.8952 10.5277C41.2735 10.5699 42.5246 10.0271 43.4217 9.1292L42.9317 8.63805Z" fill="#F7C664"></path><path d="M42.9305 8.63787C42.4958 9.07372 41.9629 9.41206 41.3675 9.61579L40.5948 8.50399L40.2684 9.82971C40.1942 9.83408 40.1186 9.83553 40.043 9.83553C38.8821 9.83553 37.8345 9.35094 37.0916 8.57384L37.7269 7.41475L36.4533 7.69924C36.1385 7.11933 35.959 6.45502 35.959 5.74777C35.959 5.33303 36.0208 4.93211 36.1356 4.5552L37.4289 4.55957L36.5784 3.58383C36.7434 3.31971 36.9367 3.07668 37.1556 2.8584L37.9806 3.68425L38.6713 4.37621H38.672L39.058 4.7633H39.0587L41.0266 6.73297L41.4133 7.12006L42.1039 7.8113L42.9297 8.63787H42.9305Z" fill="white"></path><path d="M42.9305 8.63787C42.4958 9.07372 41.9629 9.41206 41.3675 9.61579L40.5948 8.50399L40.2684 9.82971C40.1942 9.83408 40.1186 9.83553 40.043 9.83553C38.8821 9.83553 37.8345 9.35094 37.0916 8.57384L37.7269 7.41475L36.4533 7.69924C36.1385 7.11933 35.959 6.45502 35.959 5.74777C35.959 5.33303 36.0208 4.93211 36.1356 4.5552L37.4289 4.55957L36.5784 3.58383C36.7434 3.31971 36.9367 3.07668 37.1556 2.8584L37.9806 3.68425L38.6713 4.37621H38.672L39.058 4.7633H39.0587L41.0266 6.73297L41.4133 7.12006L42.1039 7.8113L42.9297 8.63787H42.9305Z" fill="#F69121"></path><path d="M41.4134 7.12055C41.0267 7.50837 40.4749 7.73321 39.8745 7.68228C38.9011 7.60005 38.132 6.78148 38.1043 5.80429C38.0883 5.24548 38.3086 4.73979 38.6714 4.37598H38.6721L39.0581 4.76307H39.0588L41.0267 6.73273L41.4134 7.11983V7.12055Z" fill="#F7C664"></path><path d="M41.0278 6.73212C40.745 7.01516 40.3423 7.17742 39.9025 7.13376C39.2511 7.06901 38.7241 6.54148 38.6594 5.88954C38.6158 5.44933 38.7779 5.04623 39.0599 4.76318H39.0607L41.0285 6.73285L41.0278 6.73212Z" fill="#F7C664"></path><path d="M45.7638 22.9263H34.3223V34.3783H45.7638V22.9263Z" fill="#226E4A"></path><path d="M45.7657 25.8537V29.7974L40.065 26.7807V22.9665L34.3242 26.0036V22.9265H40.065V22.9651L45.7657 25.8537Z" fill="#99EE81"></path><path d="M45.7657 33.4799V34.3786H40.065V30.5957L34.3242 33.6335V29.6891L40.065 26.7808V30.5913L45.7657 33.4799Z" fill="#99EE81"></path><path d="M45.7638 34.3784H34.3223V45.8304H45.7638V34.3784Z" fill="#F69121"></path><path d="M44.3349 35.8105L40.9102 40.404L40.0451 39.3948L39.18 40.404L35.7539 35.8105H44.3349Z" fill="#F7C664"></path><path d="M44.3349 44.4004H35.7539L39.18 40.4043L40.0451 41.5648L40.9102 40.4043L44.3349 44.4004Z" fill="#F7C664"></path><path d="M40.9098 40.4042L40.0448 41.5648L39.1797 40.4042L40.0448 39.395L40.9098 40.4042Z" fill="#F69121"></path><path d="M45.7638 11.4746H34.3223V22.9266H45.7638V11.4746Z" fill="#673091"></path><path d="M42.8679 11.624L40.043 14.4123V17.2005L42.8679 14.373V11.624Z" fill="#A066CC"></path><path d="M37.2168 11.624L40.041 14.4123V17.2005L37.2168 14.373V11.624Z" fill="#D1AFEF"></path><path d="M45.6143 20.0282L42.8287 17.2007H40.043L42.8679 20.0282H45.6143Z" fill="#A066CC"></path><path d="M45.6143 14.373L42.8287 17.2006H40.043L42.8679 14.373H45.6143Z" fill="#D1AFEF"></path><path d="M37.2168 22.7754L40.041 19.9872V17.1997L37.2168 20.0265V22.7754Z" fill="#A066CC"></path><path d="M42.8679 22.7754L40.043 19.9872V17.1997L42.8679 20.0265V22.7754Z" fill="#D1AFEF"></path><path d="M34.4707 14.3721L37.2564 17.1996H40.0414L37.2171 14.3721H34.4707Z" fill="#A066CC"></path><path d="M34.4707 20.0267L37.2564 17.2H40.0414L37.2171 20.0267H34.4707Z" fill="#D1AFEF"></path><path d="M34.3243 22.9265H22.8828V34.3785H34.3243V22.9265Z" fill="#4D57A5"></path><path d="M28.608 32.3976C30.3978 32.3976 31.8487 30.8111 31.8487 28.854C31.8487 26.897 30.3978 25.3105 28.608 25.3105C26.8181 25.3105 25.3672 26.897 25.3672 28.854C25.3672 30.8111 26.8181 32.3976 28.608 32.3976Z" fill="#4D57A5"></path><path d="M28.3179 31.7205C27.6738 31.1661 27.7429 30.9834 27.7959 30.7557C27.8417 30.56 27.8221 30.3613 27.7058 30.2675C27.7058 30.2675 27.7058 30.2667 27.7058 30.266C27.7058 30.2653 27.7051 30.266 27.7043 30.266C27.5866 30.1692 27.3888 30.1969 27.2071 30.2842C26.997 30.3861 26.8342 30.4923 26.1516 29.9851C25.4413 29.4569 24.758 30.2544 24.6751 30.8132C24.577 31.4753 24.9681 32.2539 25.6551 32.8178L25.6616 32.8229C26.3617 33.37 27.2071 33.581 27.8323 33.3417C28.3601 33.1386 28.9889 32.2982 28.3186 31.7198L28.3179 31.7205Z" fill="#A6C9DE"></path><path d="M25.938 29.3725C26.2077 28.5663 26.4032 28.5612 26.633 28.5249C26.8314 28.4936 27.0073 28.4004 27.0502 28.2564C27.0502 28.2564 27.051 28.2564 27.051 28.2556C27.051 28.2549 27.051 28.2549 27.051 28.2542C27.096 28.1087 26.9957 27.9355 26.8467 27.8001C26.6737 27.6437 26.513 27.5331 26.7246 26.7094C26.9448 25.8523 25.9489 25.5191 25.4008 25.6544C24.7509 25.8137 24.1788 26.4701 23.9163 27.3199L23.9142 27.3279C23.6721 28.1836 23.7964 29.0466 24.2536 29.5355C24.6404 29.9481 25.6559 30.2129 25.9373 29.3733L25.938 29.3725Z" fill="#A6C9DE"></path><path d="M28.887 31.7205C29.531 31.1661 29.462 30.9834 29.4089 30.7557C29.3631 30.56 29.3827 30.3613 29.499 30.2675C29.499 30.2675 29.499 30.2667 29.499 30.266C29.499 30.2653 29.4998 30.266 29.5005 30.266C29.6183 30.1692 29.816 30.1969 29.9977 30.2842C30.2078 30.3861 30.3707 30.4923 31.0533 29.9851C31.7635 29.4569 32.4468 30.2544 32.5297 30.8132C32.6279 31.4753 32.2368 32.2539 31.5498 32.8178L31.5432 32.8229C30.8432 33.37 29.9977 33.581 29.3726 33.3417C28.8448 33.1386 28.216 32.2982 28.8862 31.7198L28.887 31.7205Z" fill="#A6C9DE"></path><path d="M31.2664 29.3723C30.9967 28.5661 30.8012 28.561 30.5714 28.5246C30.373 28.4933 30.1971 28.4002 30.1542 28.2561C30.1542 28.2561 30.1534 28.2561 30.1534 28.2554C30.1534 28.2547 30.1534 28.2547 30.1534 28.2539C30.1084 28.1084 30.2087 27.9352 30.3577 27.7999C30.5307 27.6435 30.6914 27.5329 30.4799 26.7092C30.2596 25.8521 31.2555 25.5188 31.8036 25.6542C32.4535 25.8135 33.0256 26.4698 33.2881 27.3197L33.2903 27.3277C33.5323 28.1834 33.408 29.0463 32.9508 29.5353C32.564 29.9478 31.5485 30.2127 31.2671 29.373L31.2664 29.3723Z" fill="#A6C9DE"></path><path d="M27.2291 26.3988C28.0781 26.4228 28.1399 26.6084 28.2417 26.8179C28.3297 26.9984 28.47 27.1402 28.6197 27.1395C28.6197 27.1395 28.6197 27.1395 28.6212 27.1395C28.6226 27.1395 28.6212 27.1395 28.6226 27.1395C28.7746 27.1395 28.9112 26.994 28.997 26.8114C29.0959 26.6004 29.1548 26.4141 30.0038 26.377C30.8878 26.3384 30.9162 25.2885 30.6276 24.8024C30.2859 24.2269 29.4928 23.8696 28.6037 23.8652H28.5957C27.7074 23.8827 26.9187 24.2523 26.5843 24.833C26.3029 25.3234 26.3444 26.3726 27.2291 26.3981V26.3988Z" fill="#A6C9DE"></path><path d="M11.4923 22.9263H22.8829V34.3783H11.4414V22.9772C11.4414 22.9488 11.4647 22.9263 11.4923 22.9263Z" fill="#226E4A"></path><path d="M20.0666 22.9265H17.9453V25.0555H20.0666V22.9265Z" fill="#99EE81"></path><path d="M17.9459 22.9285H13.582V25.0553H17.9459V22.9285Z" fill="#99EE81"></path><path d="M15.7033 25.0549H13.582V28.6013H15.7033V25.0549Z" fill="#99EE81"></path><path d="M13.5811 26.4707H11.4395V28.5983H13.5811V26.4707Z" fill="#99EE81"></path><path d="M22.8825 27.3091H18.7207V29.433H22.8825V27.3091Z" fill="#99EE81"></path><path d="M20.8427 29.4331H18.7207V32.9744H20.8427V29.4331Z" fill="#99EE81"></path><path d="M18.7208 30.8503H14.3555V32.975H18.7208V30.8503Z" fill="#99EE81"></path><path d="M16.4782 32.9756H14.3555V34.3784H16.4782V32.9756Z" fill="#99EE81"></path><path d="M11.4415 22.9265V34.3785H0L11.4415 22.9265Z" fill="#F69121"></path><path d="M5.7207 34.379V28.6533H11.4411L5.7207 34.379Z" fill="#F7C664"></path><path d="M11.4415 0.0222168L0 11.4749H11.4415V0.0222168Z" fill="#226E4A"></path><path d="M5.72852 5.75977H9.53558V1.95068H11.4387V7.66467H7.63241L5.72852 5.75977Z" fill="#99EE81"></path><path d="M1.92383 11.475V9.57006H5.72943V5.75952L7.63333 7.66443V11.475H1.92383Z" fill="#99EE81"></path><path d="M34.3208 0.0322266H22.8887V11.4748H34.3208V0.0322266Z" fill="#4D57A5"></path><path d="M34.3158 7.74593C34.3158 7.88054 34.3268 8.01297 34.3195 8.14612L33.647 8.1483C33.6536 8.02606 33.6572 7.9031 33.6572 7.7794C33.6572 4.48838 31.3928 1.8202 28.5984 1.8202C25.8039 1.8202 23.5395 4.48838 23.5395 7.7794C23.5395 7.9031 23.5424 8.02679 23.5497 8.1483H22.8925C22.8852 8.01588 22.8809 7.88054 22.8809 7.74593C22.8809 4.15804 25.4412 1.24902 28.5984 1.24902C31.7555 1.24902 34.3158 4.15804 34.3158 7.74593Z" fill="#A6C9DE"></path><path d="M32.7432 7.82772C32.7432 7.93468 32.7403 8.04164 32.7345 8.14787H32.1115C32.1159 8.05256 32.1188 7.95578 32.1188 7.85828C32.1188 5.27669 30.5551 3.18261 28.6265 3.18261C26.6979 3.18261 25.1342 5.27596 25.1342 7.85828C25.1342 7.95578 25.1371 8.05256 25.1415 8.14787H24.5185C24.5127 8.04237 24.5098 7.93468 24.5098 7.82772C24.5098 4.97619 26.3533 2.66309 28.6265 2.66309C30.8997 2.66309 32.7432 4.97619 32.7432 7.82772Z" fill="#A6C9DE"></path><path d="M34.3208 9.53369H22.8887V10.2366H34.3208V9.53369Z" fill="#A6C9DE"></path><path d="M34.3208 8.06494H22.8887V8.76855H34.3208V8.06494Z" fill="#A6C9DE"></path><path d="M79.9629 28.4894L76.5527 24.9837V21.6636L79.9629 18.2198H87.3407V14.8691H79.9941V17.0723H76.5535V14.8691L79.9636 11.4253H87.3415L90.7821 14.8691V28.4901H87.3415V26.1006L85.0472 28.4901H79.9622L79.9629 28.4894ZM79.9941 25.0449H87.3407V21.6629H79.9941V25.0449Z" fill="#673091"></path><path d="M94.0984 28.4894V5.21802H97.5391V11.4239H104.917L108.327 14.9295V24.9823L104.917 28.488H99.8326L97.5383 26.0985V28.488H94.0977L94.0984 28.4894ZM97.5391 25.0449H104.886V14.8677H97.5391V25.0449Z" fill="#673091"></path><path d="M114.713 28.4894L111.303 24.9837V11.4246H114.743V25.0456H122.09V11.4246H125.531V28.4894H122.09V26.0999L119.796 28.4894H114.711H114.713Z" fill="#673091"></path><path d="M128.941 28.4896V11.4248H132.382V13.8143L134.676 11.4248H139.761L143.171 14.9305V28.4896H139.73V14.8686H132.384V28.4896H128.942H128.941Z" fill="#673091"></path><path d="M160.374 28.4894H156.933V26.1L154.639 28.4894H149.555L146.145 24.9838V14.931L149.555 11.4253H156.933V5.21948H160.373V28.4902L160.374 28.4894ZM156.933 25.0449V14.8677H149.587V25.0449H156.933Z" fill="#673091"></path><path d="M166.73 28.4892L163.32 24.9835V21.6634L166.73 18.2196H174.108V14.8689H166.762V17.0721H163.321V14.8689L166.731 11.425H174.109L177.55 14.8689V28.4899H174.109V26.1004L171.815 28.4899H166.73L166.73 28.4892ZM166.762 25.0446H174.108V21.6626H166.762V25.0446Z" fill="#673091"></path><path d="M180.867 28.4894V11.4246H184.308V13.8141L186.602 11.4246H191.686L195.097 14.9302V28.4894H191.656V14.8684H184.309V28.4894H180.868H180.867Z" fill="#673091"></path><path d="M203 28.4897L199.559 24.9527V14.8687H197.018V11.4248H199.559V6.77026H203V11.4248H207.681V14.8687H203V25.0459H207.681V28.4897H203Z" fill="#673091"></path><path d="M76.5527 37.5739V34.0056H80.1177V37.5739H76.5527ZM76.6153 57.2763V40.2115H80.0559V57.2763H76.6153Z" fill="#673091"></path><path d="M83.4648 57.2763V40.2114H86.9055V42.6009L89.1998 40.2114H94.2841L97.6942 43.7171V57.2763H94.2536V43.6552H86.907V57.2763H83.4656H83.4648Z" fill="#673091"></path><path d="M105.599 57.2761L102.159 53.7391V43.655H99.6172V40.2112H102.159V35.5566H105.599V40.2112H110.28V43.655H105.599V53.8322H110.28V57.2761H105.599Z" fill="#673091"></path><path d="M115.767 57.2765L112.326 53.8327V43.6555L115.767 40.2117H123.145L126.555 43.6555V50.4813H115.768V53.8327H123.114V51.6295H126.555V53.8327L123.145 57.2765H115.767ZM115.767 47.0375H123.113V43.6555H115.767V47.0375Z" fill="#673091"></path><path d="M129.623 57.2763V34.0056H133.064V57.2763H129.623Z" fill="#673091"></path><path d="M136.475 57.2763V34.0056H139.915V57.2763H136.475Z" fill="#673091"></path><path d="M143.262 37.5739V34.0056H146.827V37.5739H143.262ZM143.324 57.2763V40.2115H146.765V57.2763H143.324Z" fill="#673091"></path><path d="M153.213 63.4816L149.803 60.0378V58.4552H153.243V60.0378H161.055V57.4627H153.213L149.803 54.0189V51.4439L151.539 49.7063L149.803 47.9993V43.6554L153.243 40.2116H159.567L162.791 36.9846L165.395 39.5909L162.916 42.0729L164.497 43.6547V47.9986L161.087 51.4424H153.244V54.0174H161.087L164.497 57.4613V60.0363L161.056 63.4801H153.213V63.4816ZM153.243 47.9993H161.055V43.6554H153.243V47.9993Z" fill="#673091"></path><path d="M170.294 57.2763L166.854 53.8324V43.6552L170.294 40.2114H177.672L181.082 43.6552V50.481H170.295V53.8324H177.642V51.6292H181.082V53.8324L177.672 57.2763H170.294ZM170.294 47.0372H177.641V43.6552H170.294V47.0372Z" fill="#673091"></path><path d="M184.15 57.2765V40.2117H187.591V42.6012L189.885 40.2117H194.97L198.38 43.7173V57.2765H194.939V43.6555H187.593V57.2765H184.151H184.15Z" fill="#673091"></path><path d="M204.796 57.2765L201.355 53.8327V43.6555L204.796 40.2117H212.174L215.584 43.6555V46.4794H212.143V43.6555H204.797V53.8327H212.143V51.0088H215.584V53.8327L212.174 57.2765H204.796Z" fill="#673091"></path><path d="M221.536 57.2765L218.096 53.8327V43.6555L221.536 40.2117H228.914L232.324 43.6555V50.4813H221.537V53.8327H228.884V51.6295H232.324V53.8327L228.914 57.2765H221.536ZM221.536 47.0375H228.883V43.6555H221.536V47.0375Z" fill="#673091"></path><path d="M238.339 57.2763L234.928 53.8324V51.6292H238.369V53.8324H245.561V50.4505H238.338L234.928 47.0067V43.656L238.368 40.2122H245.591L249.002 43.656V45.8592H245.561V43.656H238.369V47.0067H245.592L249.002 50.4505V53.8324L245.562 57.2763H238.339Z" fill="#673091"></path></svg> 